<?xml version="1.0" encoding="UTF-8"?>
<!DOCTYPE svg PUBLIC "-//W3C//DTD SVG 1.1//EN" "http://www.w3.org/Graphics/SVG/1.1/DTD/svg11.dtd">
<svg xmlns="http://www.w3.org/2000/svg" version="1.1" width="256px" height="256px" style="shape-rendering:geometricPrecision; text-rendering:geometricPrecision; image-rendering:optimizeQuality; fill-rule:evenodd; clip-rule:evenodd" xmlns:xlink="http://www.w3.org/1999/xlink">
<g><path style="opacity:1" fill="#888888" d="M 51.5,37.5 C 102.168,37.3333 152.834,37.5 203.5,38C 210.667,39.8333 215.167,44.3333 217,51.5C 217.667,102.167 217.667,152.833 217,203.5C 215.167,210.667 210.667,215.167 203.5,217C 152.833,217.667 102.167,217.667 51.5,217C 44.3333,215.167 39.8333,210.667 38,203.5C 37.3333,152.833 37.3333,102.167 38,51.5C 40.0166,44.3185 44.5166,39.6518 51.5,37.5 Z"/></g>
<g><path style="opacity:1" fill="#bababa" d="M 72.5,53.5 C 77.3054,52.5128 82.3054,52.1795 87.5,52.5C 87.5,56.1667 87.5,59.8333 87.5,63.5C 83.5,63.5 79.5,63.5 75.5,63.5C 78.9619,62.5184 82.6286,62.185 86.5,62.5C 86.5,59.5 86.5,56.5 86.5,53.5C 81.8333,53.5 77.1667,53.5 72.5,53.5 Z"/></g>
<g><path style="opacity:1" fill="#dbdbdb" d="M 72.5,53.5 C 77.1667,53.5 81.8333,53.5 86.5,53.5C 86.5,56.5 86.5,59.5 86.5,62.5C 82.6286,62.185 78.9619,62.5184 75.5,63.5C 71.9802,64.1828 69.4802,66.1828 68,69.5C 67.6667,82.5 67.3333,95.5 67,108.5C 64.3703,115.453 60.5369,121.62 55.5,127C 60.7018,131.895 64.5352,137.729 67,144.5C 67.3333,157.833 67.6667,171.167 68,184.5C 69.1667,188.333 71.6667,190.833 75.5,192C 79.1516,192.499 82.8183,192.665 86.5,192.5C 86.5,195.5 86.5,198.5 86.5,201.5C 81.8333,201.5 77.1667,201.5 72.5,201.5C 64.6124,200.804 59.1124,196.804 56,189.5C 55.0392,174.156 54.0392,158.822 53,143.5C 51.2067,137.372 47.54,132.705 42,129.5C 40.2836,124.661 41.7836,121.494 46.5,120C 51.4549,115.279 53.9549,109.446 54,102.5C 54.0618,90.4295 54.7285,78.4295 56,66.5C 58.9574,58.9381 64.4574,54.6048 72.5,53.5 Z"/></g>
<g><path style="opacity:1" fill="#b2b2b2" d="M 181.5,53.5 C 177.167,53.5 172.833,53.5 168.5,53.5C 168.5,56.5 168.5,59.5 168.5,62.5C 171.713,62.19 174.713,62.5233 177.5,63.5C 174.167,63.5 170.833,63.5 167.5,63.5C 167.5,59.8333 167.5,56.1667 167.5,52.5C 172.363,52.1805 177.03,52.5139 181.5,53.5 Z"/></g>
<g><path style="opacity:1" fill="#dadada" d="M 181.5,53.5 C 189.483,54.4052 195.317,58.4052 199,65.5C 200.04,79.8181 201.04,94.1515 202,108.5C 203.336,114.859 206.836,119.526 212.5,122.5C 213.647,124.765 213.814,127.098 213,129.5C 207.489,132.682 203.822,137.349 202,143.5C 201,158.833 200,174.167 199,189.5C 195.928,196.79 190.428,200.79 182.5,201.5C 177.833,201.5 173.167,201.5 168.5,201.5C 168.5,198.5 168.5,195.5 168.5,192.5C 172.371,192.815 176.038,192.482 179.5,191.5C 183.02,190.817 185.52,188.817 187,185.5C 187.333,171.833 187.667,158.167 188,144.5C 190.451,137.766 194.285,131.933 199.5,127C 193.571,121.389 189.738,114.556 188,106.5C 187.667,94.1667 187.333,81.8333 187,69.5C 185.189,65.345 182.023,63.345 177.5,63.5C 174.713,62.5233 171.713,62.19 168.5,62.5C 168.5,59.5 168.5,56.5 168.5,53.5C 172.833,53.5 177.167,53.5 181.5,53.5 Z"/></g>
<g><path style="opacity:1" fill="#b0b0b0" d="M 105.5,93.5 C 100.381,92.8969 95.7147,93.5636 91.5,95.5C 90.596,94.791 90.2627,93.791 90.5,92.5C 95.6946,92.1795 100.695,92.5128 105.5,93.5 Z"/></g>
<g><path style="opacity:1" fill="#dbdbdb" d="M 105.5,93.5 C 113.269,114.711 120.769,136.045 128,157.5C 135.911,136.77 143.244,115.77 150,94.5C 154.748,93.3651 159.581,93.1985 164.5,94C 155.377,119.756 146.377,145.589 137.5,171.5C 131.167,172.833 124.833,172.833 118.5,171.5C 109.493,146.156 100.493,120.822 91.5,95.5C 95.7147,93.5636 100.381,92.8969 105.5,93.5 Z"/></g>
<g><path style="opacity:1" fill="#b2b2b2" d="M 179.5,191.5 C 176.038,192.482 172.371,192.815 168.5,192.5C 168.5,195.5 168.5,198.5 168.5,201.5C 173.167,201.5 177.833,201.5 182.5,201.5C 177.695,202.487 172.695,202.821 167.5,202.5C 167.5,198.833 167.5,195.167 167.5,191.5C 171.5,191.5 175.5,191.5 179.5,191.5 Z"/></g>
<g><path style="opacity:1" fill="#c2c2c2" d="M 86.5,192.5 C 87.4794,195.625 87.8128,198.958 87.5,202.5C 82.3054,202.821 77.3054,202.487 72.5,201.5C 77.1667,201.5 81.8333,201.5 86.5,201.5C 86.5,198.5 86.5,195.5 86.5,192.5 Z"/></g>
</svg>
